<svg xmlns="http://www.w3.org/2000/svg" xmlns:xlink="http://www.w3.org/1999/xlink" width="820" zoomAndPan="magnify" viewBox="0 0 615 102.749999" height="137" preserveAspectRatio="xMidYMid meet" version="1.2"><g id="2e6ef68fa1"><path style=" stroke:none;fill-rule:nonzero;fill:#545454;fill-opacity:1;" d="M 246.148438 41.433594 L 246.148438 79.886719 L 258.867188 79.886719 L 258.867188 2.980469 L 246.148438 2.980469 Z M 246.148438 41.433594 "/><path style=" stroke:none;fill-rule:nonzero;fill:#545454;fill-opacity:1;" d="M 74.066406 27.996094 C 65.839844 30.308594 60.527344 34.863281 56.933594 42.554688 C 55.363281 45.988281 54.988281 47.78125 54.988281 53.382812 C 54.988281 62.640625 56.5625 67.042969 62.023438 72.496094 C 67.183594 77.648438 72.570312 79.886719 81.175781 80.410156 C 101.078125 81.753906 114.171875 68.238281 111.476562 49.273438 C 110.203125 40.164062 105.265625 33.667969 96.738281 29.710938 C 92.621094 27.769531 90.753906 27.398438 84.992188 27.171875 C 80.425781 26.949219 76.835938 27.25 74.066406 27.996094 Z M 90.304688 39.121094 C 95.765625 41.660156 98.085938 45.390625 98.609375 52.261719 C 98.832031 56.144531 98.609375 58.382812 97.710938 60.847656 C 93.070312 72.867188 74.816406 73.390625 69.503906 61.59375 C 67.632812 57.5625 67.632812 49.871094 69.503906 45.914062 C 73.09375 38.148438 81.925781 35.238281 90.304688 39.121094 Z M 90.304688 39.121094 "/><path style=" stroke:none;fill-rule:nonzero;fill:#545454;fill-opacity:1;" d="M 192.355469 28.441406 C 188.613281 29.636719 186.742188 30.832031 183.675781 33.894531 C 178.589844 38.972656 176.941406 43.523438 176.941406 52.632812 C 176.941406 64.132812 180.683594 71.078125 189.0625 75.109375 C 192.429688 76.75 194.601562 77.273438 199.835938 77.496094 C 207.917969 77.871094 212.78125 76.453125 217.046875 72.496094 L 219.964844 69.65625 L 219.964844 73.464844 C 219.886719 83.023438 213.679688 88.324219 202.53125 88.398438 C 196.46875 88.398438 191.234375 86.90625 186.144531 83.695312 L 182.777344 81.53125 L 180.609375 86.007812 C 178.515625 90.414062 178.515625 90.488281 179.933594 91.609375 C 184.351562 94.96875 194.449219 97.804688 202.082031 97.804688 C 215.699219 97.804688 225.722656 92.878906 230.363281 83.84375 C 232.90625 78.839844 233.429688 72.941406 233.429688 49.871094 L 233.429688 27.621094 L 222.207031 27.621094 L 222.207031 29.636719 C 222.207031 30.832031 221.984375 32.398438 221.757812 33.296875 C 221.382812 34.714844 221.234375 34.640625 218.765625 32.324219 C 213.378906 27.25 201.632812 25.53125 192.355469 28.441406 Z M 214.277344 39.566406 C 221.757812 44.644531 222.804688 57.039062 216.296875 63.535156 C 211.582031 68.238281 203.578125 69.136719 196.917969 65.777344 C 186.96875 60.699219 187.492188 43.523438 197.816406 38.746094 C 202.304688 36.582031 210.460938 37.03125 214.277344 39.566406 Z M 214.277344 39.566406 "/><path style=" stroke:none;fill-rule:nonzero;fill:#545454;fill-opacity:1;" d="M 286.925781 27.921875 C 276.375 31.207031 269.71875 40.015625 268.820312 51.664062 C 267.921875 63.984375 272.933594 73.539062 282.808594 78.320312 C 286.402344 80.035156 287.824219 80.261719 294.03125 80.261719 C 302.1875 80.1875 306.601562 78.542969 310.417969 74.289062 C 312.511719 71.898438 312.585938 71.824219 313.035156 73.390625 C 313.261719 74.289062 313.484375 76.152344 313.484375 77.421875 L 313.484375 79.886719 L 325.457031 79.886719 L 325.457031 27.621094 L 313.484375 27.621094 L 313.484375 31.355469 C 313.484375 33.371094 313.335938 35.089844 313.261719 35.089844 C 313.113281 35.089844 311.613281 33.746094 309.894531 32.101562 C 304.804688 27.324219 294.707031 25.457031 286.925781 27.921875 Z M 304.582031 39.417969 C 307.800781 41.0625 308.996094 42.257812 310.640625 45.464844 C 317 57.5625 308.324219 71.449219 295.453125 69.957031 C 287.746094 69.0625 282.886719 63.835938 282.285156 55.84375 C 281.761719 49.425781 283.035156 45.316406 286.550781 41.808594 C 291.488281 36.878906 298.074219 35.984375 304.582031 39.417969 Z M 304.582031 39.417969 "/><path style=" stroke:none;fill-rule:nonzero;fill:#545454;fill-opacity:1;" d="M 348.648438 27.847656 C 340.792969 30.085938 336.679688 34.714844 336.679688 41.433594 C 336.679688 50.320312 342.441406 55.472656 356.207031 58.980469 C 364.363281 61.070312 365.859375 62.042969 365.859375 65.328125 C 365.859375 70.628906 360.320312 72.792969 352.613281 70.554688 C 349.324219 69.582031 347.453125 68.464844 345.058594 66 L 341.917969 62.640625 L 337.800781 65.851562 C 335.558594 67.566406 333.6875 69.285156 333.6875 69.507812 C 333.6875 70.480469 340.34375 76.078125 343.1875 77.496094 C 351.867188 81.902344 365.484375 81.453125 373.265625 76.601562 C 377.378906 73.988281 379.625 69.136719 379.175781 63.757812 C 378.578125 56.589844 375.0625 53.605469 362.789062 49.722656 C 351.042969 45.988281 350.144531 45.390625 350.144531 41.359375 C 350.144531 38.449219 351.941406 36.804688 355.832031 36.207031 C 359.949219 35.535156 364.363281 36.878906 368.625 40.089844 L 372.144531 42.777344 L 375.359375 39.121094 C 377.082031 37.105469 378.578125 35.238281 378.578125 34.9375 C 378.578125 33.96875 373.039062 30.609375 368.777344 28.964844 C 363.761719 27.097656 353.4375 26.5 348.648438 27.847656 Z M 348.648438 27.847656 "/><path style=" stroke:none;fill-rule:nonzero;fill:#545454;fill-opacity:1;" d="M 429.453125 28.070312 C 421.296875 30.234375 415.910156 34.789062 412.320312 42.554688 C 410.675781 46.0625 410.375 47.707031 410.375 53.753906 C 410.375 60.324219 410.597656 61.296875 412.84375 65.851562 C 415.761719 71.824219 420.398438 76.152344 426.386719 78.542969 C 429.828125 79.886719 432.070312 80.1875 439.179688 80.261719 C 446.960938 80.261719 448.15625 80.109375 452.046875 78.246094 C 456.386719 76.226562 461.625 72.496094 461.625 71.449219 C 461.625 71.152344 460.054688 69.210938 458.183594 67.195312 L 454.742188 63.460938 L 452.347656 65.476562 C 446.210938 70.628906 438.429688 71.675781 431.621094 68.089844 C 428.40625 66.449219 427.207031 65.253906 425.5625 62.042969 C 421.074219 53.53125 423.765625 43.449219 431.621094 39.417969 C 438.429688 35.835938 446.210938 36.878906 452.421875 42.105469 L 454.742188 44.046875 L 458.332031 39.867188 L 461.925781 35.683594 L 460.128906 34.265625 C 451.597656 27.546875 440.078125 25.234375 429.453125 28.070312 Z M 429.453125 28.070312 "/><path style=" stroke:none;fill-rule:nonzero;fill:#545454;fill-opacity:1;" d="M 486.316406 27.996094 C 478.085938 30.308594 472.773438 34.863281 469.179688 42.554688 C 467.609375 45.988281 467.234375 47.78125 467.234375 53.382812 C 467.234375 62.640625 468.808594 67.042969 474.269531 72.496094 C 479.433594 77.648438 484.820312 79.886719 493.421875 80.410156 C 513.324219 81.753906 526.417969 68.238281 523.722656 49.273438 C 522.453125 40.164062 517.515625 33.667969 508.984375 29.710938 C 504.871094 27.769531 503 27.398438 497.238281 27.171875 C 492.675781 26.949219 489.082031 27.25 486.316406 27.996094 Z M 502.550781 39.121094 C 508.011719 41.660156 510.332031 45.390625 510.855469 52.261719 C 511.078125 56.144531 510.855469 58.382812 509.957031 60.847656 C 505.320312 72.867188 487.0625 73.390625 481.75 61.59375 C 479.878906 57.5625 479.878906 49.871094 481.75 45.914062 C 485.34375 38.148438 494.171875 35.238281 502.550781 39.121094 Z M 502.550781 39.121094 "/><path style=" stroke:none;fill-rule:nonzero;fill:#545454;fill-opacity:1;" d="M 553.726562 27.921875 C 552.378906 28.367188 549.910156 29.9375 548.339844 31.207031 L 545.421875 33.667969 L 545.421875 27.621094 L 534.199219 27.621094 L 534.199219 79.886719 L 546.917969 79.886719 L 546.917969 62.863281 C 546.917969 48.003906 547.140625 45.542969 548.339844 42.851562 C 550.582031 38 556.046875 36.132812 561.507812 38.375 C 566.070312 40.316406 566.371094 41.808594 566.371094 61.96875 L 566.371094 79.886719 L 578.941406 79.886719 L 579.238281 62.488281 C 579.464844 43.226562 579.761719 42.105469 584.328125 38.972656 C 587.84375 36.582031 593.304688 36.953125 596.074219 39.792969 C 598.691406 42.40625 599.214844 46.0625 599.214844 64.355469 L 599.289062 79.886719 L 612.007812 79.886719 L 612.007812 63.238281 C 612.007812 41.0625 611.1875 36.582031 605.949219 31.503906 C 599.363281 25.082031 584.851562 25.457031 578.789062 32.101562 L 576.097656 35.089844 L 572.804688 31.804688 C 570.859375 29.863281 568.316406 28.144531 566.667969 27.695312 C 562.929688 26.652344 556.941406 26.726562 553.726562 27.921875 Z M 553.726562 27.921875 "/><path style=" stroke:none;fill-rule:nonzero;fill:#545454;fill-opacity:1;" d="M 40.398438 29.265625 C 38.082031 30.460938 36.210938 32.25 34.414062 34.9375 C 31.871094 38.820312 31.796875 38.894531 31.570312 36.804688 C 31.496094 35.683594 31.199219 33.296875 30.972656 31.503906 L 30.597656 28.367188 L 20.199219 28.367188 L 20.199219 79.886719 L 32.917969 79.886719 L 32.917969 66.597656 C 32.992188 52.113281 33.589844 48.078125 36.285156 43.898438 C 38.753906 40.238281 42.046875 38.523438 46.984375 38.523438 L 50.875 38.523438 L 50.875 33.519531 C 50.875 29.636719 50.574219 28.441406 49.675781 28.070312 C 47.359375 27.171875 43.617188 27.621094 40.398438 29.265625 Z M 40.398438 29.265625 "/><path style=" stroke:none;fill-rule:nonzero;fill:#545454;fill-opacity:1;" d="M 120.605469 46.0625 C 120.828125 62.789062 121.054688 64.878906 122.398438 67.941406 C 124.71875 72.941406 127.488281 75.855469 132.277344 78.167969 C 136.09375 80.035156 137.289062 80.261719 144.398438 80.261719 C 151.503906 80.261719 152.703125 80.035156 156.515625 78.167969 C 158.910156 76.976562 161.828125 74.808594 163.101562 73.316406 C 167.292969 68.238281 167.816406 65.625 168.1875 45.691406 L 168.488281 27.621094 L 155.769531 27.621094 L 155.46875 45.316406 C 155.246094 62.265625 155.171875 63.238281 153.523438 65.777344 C 151.28125 69.433594 147.390625 71.226562 143.199219 70.628906 C 139.085938 70.105469 137.214844 68.984375 135.195312 65.699219 C 133.625 63.238281 133.546875 62.117188 133.324219 45.316406 L 133.023438 27.621094 L 120.304688 27.621094 Z M 120.605469 46.0625 "/><path style=" stroke:none;fill-rule:nonzero;fill:#545454;fill-opacity:1;" d="M 391.371094 67.640625 C 386.730469 71.523438 389.050781 79.4375 395.035156 80.335938 C 400.273438 81.15625 404.3125 77.796875 404.3125 72.570312 C 404.3125 70.628906 403.714844 69.507812 401.921875 67.867188 C 398.703125 64.953125 394.589844 64.878906 391.371094 67.640625 Z M 391.371094 67.640625 "/></g></svg>